<svg id="svg" version="1.1" xmlns="http://www.w3.org/2000/svg" xmlns:xlink="http://www.w3.org/1999/xlink" width="400" height="307.8125" viewBox="0, 0, 400,307.8125"><g id="svgg"><path id="path0" d="M111.247 105.821 C 109.505 106.438,107.189 108.573,106.070 110.593 L 105.158 112.240 105.158 135.027 C 105.158 160.366,105.125 159.905,107.292 165.043 C 117.788 189.931,153.893 188.394,162.551 162.691 C 169.370 142.450,150.163 121.046,129.176 125.499 C 123.680 126.665,124.063 127.171,124.106 118.814 C 124.137 112.809,123.839 111.268,122.226 109.074 C 119.791 105.762,115.230 104.411,111.247 105.821 M174.421 105.727 C 171.674 106.627,169.539 108.749,168.449 111.663 C 167.603 113.925,167.452 173.080,168.285 175.934 C 170.481 183.460,180.901 185.053,185.201 178.520 C 186.986 175.808,186.943 176.725,186.847 143.187 L 186.759 112.240 186.013 110.724 C 183.952 106.536,178.768 104.301,174.421 105.727 M277.444 126.120 C 263.508 128.644,253.118 140.789,253.118 154.555 C 253.117 173.676,271.520 187.822,290.016 182.918 C 293.119 182.095,293.020 182.012,292.583 185.102 C 291.900 189.932,289.251 193.197,285.111 194.312 C 272.009 197.840,276.392 216.013,289.607 212.957 C 300.787 210.372,309.975 200.283,311.484 188.934 C 312.237 183.276,312.117 152.550,311.328 148.984 C 307.904 133.499,292.837 123.332,277.444 126.120 M137.644 144.485 C 141.638 145.711,144.477 149.641,144.492 153.965 C 144.523 162.834,133.701 167.281,127.405 160.986 C 119.994 153.574,127.556 141.387,137.644 144.485 M286.981 146.137 C 293.245 149.546,294.384 157.559,289.275 162.269 C 281.375 169.551,268.774 160.810,273.209 151.123 C 275.659 145.772,282.055 143.456,286.981 146.137 M88.838 165.105 C 79.270 168.670,81.727 182.756,91.917 182.756 C 103.796 182.756,104.097 165.209,92.225 164.838 C 90.870 164.795,89.346 164.916,88.838 165.105 " stroke="none" fill="#435243" fill-rule="evenodd"></path><path id="path1" d="M0.000 153.965 L 0.000 307.929 200.000 307.929 L 400.000 307.929 400.000 153.965 L 400.000 0.000 200.000 0.000 L 0.000 0.000 0.000 153.965 M118.742 105.669 C 121.290 106.866,122.784 108.637,124.285 112.240 C 124.427 112.579,124.615 115.766,124.704 119.323 C 124.859 125.551,124.888 125.787,125.481 125.740 C 125.820 125.713,127.461 125.401,129.129 125.047 C 132.456 124.341,136.081 124.221,138.622 124.735 C 141.074 125.230,144.204 126.015,144.727 126.267 C 144.981 126.389,145.947 126.816,146.874 127.217 C 153.424 130.046,162.587 139.964,162.587 144.225 C 162.587 144.433,162.704 144.735,162.847 144.896 C 164.632 146.899,164.642 161.125,162.860 163.033 C 162.710 163.194,162.587 163.517,162.587 163.751 C 162.587 163.986,162.040 165.280,161.373 166.628 C 153.869 181.777,135.294 187.920,120.721 180.072 C 115.731 177.386,112.071 174.036,109.152 169.485 C 107.802 167.380,106.802 165.221,105.672 161.971 L 104.869 159.661 104.770 136.260 C 104.679 114.876,104.715 112.739,105.191 111.471 C 105.872 109.660,107.007 108.084,108.306 107.145 C 108.881 106.730,109.542 106.216,109.774 106.004 C 111.269 104.638,116.162 104.456,118.742 105.669 M181.523 105.760 C 183.518 106.704,185.364 108.581,186.500 110.823 L 187.375 112.548 187.375 143.649 C 187.375 177.837,187.465 176.163,185.473 178.946 C 180.214 186.291,169.176 183.577,167.503 174.528 C 166.950 171.537,167.267 113.124,167.844 111.778 C 170.438 105.725,176.143 103.215,181.523 105.760 M224.342 125.657 C 249.913 129.213,257.742 164.088,236.298 178.913 C 227.878 184.734,215.706 185.633,206.828 181.090 C 205.466 180.393,204.874 180.239,204.365 180.449 C 202.314 181.296,192.091 184.803,191.984 184.697 C 191.915 184.627,192.559 182.569,193.415 180.122 C 194.270 177.675,195.253 174.839,195.598 173.818 L 196.226 171.962 195.396 170.739 C 193.332 167.698,191.727 163.139,191.190 158.795 C 188.704 138.665,204.481 122.894,224.342 125.657 M288.068 125.752 C 295.945 127.304,303.255 132.194,307.486 138.741 C 309.917 142.505,310.785 144.567,311.820 149.038 C 312.768 153.137,312.326 191.191,311.313 192.610 C 311.192 192.779,310.994 193.333,310.872 193.840 C 310.635 194.827,308.578 199.281,308.241 199.538 C 308.129 199.623,307.959 199.909,307.862 200.173 C 305.745 205.937,293.571 213.694,286.631 213.700 C 274.829 213.712,273.135 196.922,284.643 193.999 C 289.127 192.860,292.225 188.825,292.225 184.123 C 292.225 182.671,292.417 182.696,288.992 183.695 C 286.821 184.328,278.615 184.467,276.828 183.901 C 276.236 183.713,274.919 183.323,273.903 183.034 C 257.957 178.501,248.573 160.223,254.315 144.881 C 254.855 143.437,257.269 138.876,257.493 138.876 C 257.627 138.876,257.737 138.668,257.737 138.414 C 257.737 138.160,257.866 137.952,258.024 137.952 C 258.182 137.952,258.393 137.710,258.492 137.413 C 258.716 136.748,260.398 134.933,262.792 132.773 C 269.393 126.818,279.386 124.042,288.068 125.752 M131.640 144.849 C 123.120 148.140,122.466 158.725,130.539 162.653 C 136.515 165.562,144.119 160.757,144.112 154.077 C 144.106 147.755,137.249 142.682,131.640 144.849 M280.726 145.673 C 269.155 147.555,271.035 164.945,282.747 164.374 C 292.686 163.889,295.703 150.833,286.866 146.551 C 285.797 146.033,285.167 145.873,282.833 145.523 C 282.494 145.472,281.546 145.540,280.726 145.673 M95.927 165.042 C 102.108 168.352,103.360 175.602,98.601 180.526 C 91.849 187.515,80.005 180.605,82.721 171.262 C 84.384 165.542,91.022 162.415,95.927 165.042 " stroke="none" fill="#fbfbfb" fill-rule="evenodd"></path><path id="path2" d="M114.015 104.917 C 114.483 104.988,115.176 104.986,115.555 104.913 C 115.933 104.840,115.550 104.782,114.704 104.784 C 113.857 104.786,113.547 104.846,114.015 104.917 M176.674 104.913 C 177.055 104.987,177.679 104.987,178.060 104.913 C 178.441 104.840,178.129 104.780,177.367 104.780 C 176.605 104.780,176.293 104.840,176.674 104.913 M171.251 106.862 C 170.297 107.657,170.728 107.648,171.740 106.851 C 172.171 106.513,172.401 106.240,172.251 106.246 C 172.101 106.251,171.651 106.529,171.251 106.862 M122.259 108.545 C 122.261 108.714,122.545 109.199,122.891 109.623 C 123.309 110.134,123.414 110.186,123.203 109.777 C 122.684 108.772,122.257 108.216,122.259 108.545 M186.804 112.394 C 187.047 113.722,187.222 113.973,187.216 112.984 C 187.214 112.575,187.075 112.032,186.909 111.778 C 186.696 111.453,186.665 111.636,186.804 112.394 M124.465 119.381 C 124.431 122.801,124.507 125.663,124.634 125.742 C 124.761 125.821,124.829 123.993,124.785 121.680 C 124.638 113.920,124.526 113.118,124.465 119.381 M187.369 144.111 C 187.369 160.624,187.406 167.379,187.452 159.122 C 187.497 150.866,187.497 137.356,187.452 129.099 C 187.406 120.843,187.369 127.598,187.369 144.111 M167.353 144.111 C 167.353 160.454,167.391 167.140,167.436 158.968 C 167.482 150.797,167.482 137.425,167.436 129.253 C 167.391 121.082,167.353 127.768,167.353 144.111 M132.948 124.630 C 133.838 124.693,135.293 124.693,136.182 124.630 C 137.071 124.568,136.343 124.517,134.565 124.517 C 132.787 124.517,132.059 124.568,132.948 124.630 M215.089 125.669 C 194.941 128.574,183.912 153.817,195.396 170.739 L 196.226 171.962 195.598 173.818 C 195.253 174.839,194.270 177.675,193.415 180.122 C 192.559 182.569,191.915 184.627,191.984 184.697 C 192.091 184.803,202.314 181.296,204.365 180.449 C 204.874 180.239,205.466 180.393,206.828 181.090 C 219.347 187.496,235.896 183.131,243.713 171.363 C 258.085 149.726,240.700 121.975,215.089 125.669 M279.065 125.548 C 279.533 125.619,280.226 125.617,280.605 125.544 C 280.983 125.471,280.600 125.413,279.754 125.415 C 278.907 125.418,278.597 125.477,279.065 125.548 M284.608 125.548 C 285.076 125.619,285.769 125.617,286.147 125.544 C 286.526 125.471,286.143 125.413,285.296 125.415 C 284.450 125.418,284.140 125.477,284.608 125.548 M274.673 126.265 C 274.336 126.493,274.460 126.522,275.135 126.371 C 276.267 126.118,276.513 125.941,275.725 125.948 C 275.400 125.950,274.927 126.093,274.673 126.265 M288.863 126.054 C 288.934 126.115,289.407 126.257,289.915 126.371 C 290.590 126.522,290.715 126.493,290.377 126.265 C 289.961 125.984,288.554 125.787,288.863 126.054 M264.913 131.046 L 264.049 131.839 265.050 131.142 C 265.600 130.759,266.051 130.403,266.051 130.350 C 266.051 130.107,265.710 130.315,264.913 131.046 M299.615 130.664 C 299.615 130.749,300.169 131.257,300.847 131.794 C 301.524 132.330,302.079 132.700,302.079 132.615 C 302.079 132.531,301.524 132.022,300.847 131.486 C 300.169 130.949,299.615 130.580,299.615 130.664 M259.584 135.863 C 258.321 137.431,258.184 137.891,259.375 136.567 C 259.984 135.889,260.488 135.231,260.495 135.104 C 260.515 134.749,260.413 134.834,259.584 135.863 M304.542 135.072 C 304.542 135.238,304.992 135.781,305.543 136.278 L 306.543 137.182 305.620 136.106 C 305.112 135.514,304.661 134.972,304.619 134.900 C 304.577 134.829,304.542 134.906,304.542 135.072 M255.015 143.046 C 254.499 144.179,254.598 144.420,255.156 143.391 C 255.416 142.910,255.572 142.459,255.501 142.389 C 255.431 142.318,255.212 142.614,255.015 143.046 M280.600 145.555 C 280.897 145.632,281.382 145.632,281.678 145.555 C 281.975 145.477,281.732 145.414,281.139 145.414 C 280.547 145.414,280.304 145.477,280.600 145.555 M283.064 145.555 C 283.360 145.632,283.845 145.632,284.142 145.555 C 284.438 145.477,284.196 145.414,283.603 145.414 C 283.010 145.414,282.768 145.477,283.064 145.555 M141.032 147.036 C 141.606 147.629,142.145 148.114,142.230 148.114 C 142.315 148.114,141.914 147.629,141.339 147.036 C 140.765 146.443,140.226 145.958,140.141 145.958 C 140.056 145.958,140.457 146.443,141.032 147.036 M312.010 151.347 C 312.013 152.025,312.076 152.266,312.150 151.882 C 312.224 151.499,312.221 150.945,312.144 150.651 C 312.067 150.356,312.006 150.670,312.010 151.347 M252.607 154.426 C 252.609 155.781,252.663 156.297,252.728 155.573 C 252.793 154.849,252.792 153.740,252.726 153.110 C 252.660 152.479,252.606 153.072,252.607 154.426 M164.227 154.426 C 164.229 155.612,164.284 156.059,164.351 155.420 C 164.418 154.782,164.417 153.812,164.348 153.265 C 164.280 152.718,164.226 153.241,164.227 154.426 M144.199 154.119 C 144.201 154.965,144.261 155.275,144.332 154.807 C 144.403 154.339,144.401 153.646,144.328 153.268 C 144.255 152.889,144.197 153.272,144.199 154.119 M312.328 154.426 C 312.331 155.273,312.390 155.583,312.461 155.115 C 312.532 154.647,312.530 153.954,312.457 153.575 C 312.384 153.197,312.326 153.580,312.328 154.426 M272.601 154.888 C 272.601 155.651,272.661 155.962,272.735 155.581 C 272.808 155.200,272.808 154.577,272.735 154.196 C 272.661 153.814,272.601 154.126,272.601 154.888 M124.783 154.888 C 124.783 155.481,124.846 155.724,124.924 155.427 C 125.001 155.131,125.001 154.646,124.924 154.349 C 124.846 154.053,124.783 154.296,124.783 154.888 M291.801 157.082 C 291.693 157.623,291.662 158.123,291.731 158.193 C 291.801 158.263,291.954 157.884,292.071 157.352 C 292.188 156.820,292.219 156.320,292.141 156.241 C 292.062 156.163,291.910 156.541,291.801 157.082 M312.076 172.132 C 312.076 181.024,312.115 184.661,312.163 180.216 C 312.211 175.770,312.211 168.495,312.163 164.049 C 312.115 159.604,312.076 163.241,312.076 172.132 M252.881 157.968 C 252.881 158.560,252.945 158.803,253.022 158.507 C 253.100 158.210,253.100 157.725,253.022 157.429 C 252.945 157.132,252.881 157.375,252.881 157.968 M105.025 159.225 C 105.037 159.634,105.173 160.246,105.326 160.585 C 105.521 161.014,105.548 160.828,105.418 159.969 C 105.200 158.539,104.994 158.149,105.025 159.225 M141.171 160.816 L 139.954 162.125 141.263 160.907 C 142.480 159.775,142.713 159.507,142.480 159.507 C 142.429 159.507,141.841 160.096,141.171 160.816 M137.490 163.059 C 136.717 163.432,136.692 163.474,137.336 163.319 C 137.760 163.217,138.238 163.010,138.399 162.860 C 138.798 162.487,138.579 162.535,137.490 163.059 M134.026 163.723 C 134.323 163.800,134.808 163.800,135.104 163.723 C 135.400 163.645,135.158 163.582,134.565 163.582 C 133.972 163.582,133.730 163.645,134.026 163.723 M281.370 164.657 C 281.921 164.725,282.821 164.725,283.372 164.657 C 283.922 164.589,283.472 164.533,282.371 164.533 C 281.270 164.533,280.820 164.589,281.370 164.657 M82.239 173.698 C 82.251 174.446,82.376 175.335,82.517 175.674 C 82.673 176.045,82.708 175.557,82.607 174.442 C 82.406 172.217,82.209 171.819,82.239 173.698 M101.393 173.672 C 101.393 174.434,101.453 174.746,101.526 174.365 C 101.599 173.984,101.599 173.360,101.526 172.979 C 101.453 172.598,101.393 172.910,101.393 173.672 M113.472 174.904 C 114.306 175.751,115.058 176.443,115.142 176.443 C 115.227 176.443,114.614 175.751,113.780 174.904 C 112.946 174.057,112.194 173.364,112.109 173.364 C 112.025 173.364,112.638 174.057,113.472 174.904 M260.816 175.000 C 260.816 175.053,261.266 175.503,261.817 176.001 L 262.818 176.905 261.913 175.905 C 261.070 174.972,260.816 174.762,260.816 175.000 M141.955 182.294 C 141.321 182.497,141.294 182.545,141.801 182.567 C 142.140 182.581,142.625 182.458,142.879 182.294 C 143.419 181.945,143.044 181.945,141.955 182.294 M291.809 182.838 C 292.003 182.962,292.227 183.410,292.306 183.834 C 292.427 184.486,292.455 184.450,292.491 183.603 C 292.523 182.837,292.406 182.603,291.994 182.607 C 291.648 182.610,291.582 182.692,291.809 182.838 M176.674 183.127 C 177.055 183.201,177.679 183.201,178.060 183.127 C 178.441 183.054,178.129 182.994,177.367 182.994 C 176.605 182.994,176.293 183.054,176.674 183.127 M274.365 183.204 C 274.619 183.376,275.092 183.518,275.417 183.521 C 276.205 183.527,275.959 183.351,274.827 183.098 C 274.152 182.947,274.028 182.976,274.365 183.204 M91.382 183.436 C 91.765 183.509,92.319 183.507,92.613 183.429 C 92.908 183.352,92.594 183.292,91.917 183.296 C 91.239 183.299,90.999 183.362,91.382 183.436 M132.806 183.446 C 133.786 183.507,135.310 183.506,136.193 183.444 C 137.076 183.383,136.274 183.332,134.411 183.333 C 132.548 183.334,131.826 183.384,132.806 183.446 M276.844 183.850 C 277.256 184.110,279.555 184.281,279.266 184.030 C 279.196 183.969,278.521 183.840,277.768 183.743 C 276.882 183.630,276.556 183.668,276.844 183.850 M286.990 183.834 C 285.938 184.055,285.934 184.061,286.836 184.079 C 287.344 184.090,288.037 183.979,288.376 183.834 C 289.116 183.516,288.502 183.516,286.990 183.834 M281.671 184.364 C 282.218 184.432,283.188 184.433,283.827 184.366 C 284.466 184.300,284.018 184.244,282.833 184.243 C 281.647 184.241,281.125 184.296,281.671 184.364 M279.583 196.998 L 278.522 198.152 279.677 197.091 C 280.751 196.104,280.973 195.843,280.738 195.843 C 280.686 195.843,280.167 196.363,279.583 196.998 M276.598 203.695 C 276.601 204.373,276.665 204.613,276.738 204.230 C 276.812 203.847,276.809 203.293,276.732 202.999 C 276.655 202.704,276.595 203.018,276.598 203.695 M303.310 205.543 C 302.562 206.305,302.020 206.928,302.104 206.928 C 302.189 206.928,302.870 206.305,303.618 205.543 C 304.366 204.781,304.909 204.157,304.824 204.157 C 304.739 204.157,304.058 204.781,303.310 205.543 M278.302 209.238 C 278.481 209.577,279.222 210.408,279.950 211.085 C 281.257 212.302,280.839 211.776,278.116 208.776 C 278.040 208.691,278.123 208.899,278.302 209.238 M288.992 213.395 C 288.603 213.562,288.546 213.660,288.838 213.660 C 289.092 213.660,289.577 213.540,289.915 213.395 C 290.304 213.228,290.360 213.130,290.069 213.130 C 289.815 213.130,289.330 213.249,288.992 213.395 " stroke="none" fill="#9cd3cb" fill-rule="evenodd"></path><path id="path3" d="M114.011 105.216 C 114.307 105.294,114.792 105.294,115.089 105.216 C 115.385 105.139,115.142 105.075,114.550 105.075 C 113.957 105.075,113.714 105.139,114.011 105.216 M107.602 108.160 L 106.697 109.161 107.698 108.256 C 108.631 107.413,108.841 107.159,108.603 107.159 C 108.550 107.159,108.099 107.610,107.602 108.160 M187.061 143.957 C 187.061 160.216,187.098 166.822,187.144 158.637 C 187.190 150.453,187.190 137.150,187.144 129.076 C 187.098 121.002,187.061 127.698,187.061 143.957 M124.219 120.400 C 124.219 123.025,124.267 124.099,124.324 122.787 C 124.382 121.474,124.382 119.326,124.324 118.014 C 124.267 116.701,124.219 117.775,124.219 120.400 M133.102 124.936 C 133.737 125.002,134.777 125.002,135.412 124.936 C 136.047 124.869,135.527 124.815,134.257 124.815 C 132.987 124.815,132.467 124.869,133.102 124.936 M262.798 133.102 L 261.894 134.103 262.895 133.199 C 263.445 132.701,263.895 132.251,263.895 132.198 C 263.895 131.960,263.641 132.170,262.798 133.102 M155.196 133.430 C 155.196 133.483,155.647 133.933,156.197 134.430 L 157.198 135.335 156.293 134.334 C 155.450 133.401,155.196 133.192,155.196 133.430 M275.272 148.037 L 274.211 149.192 275.366 148.131 C 276.440 147.143,276.662 146.882,276.427 146.882 C 276.375 146.882,275.856 147.402,275.272 148.037 M163.922 154.273 C 163.922 155.543,163.976 156.062,164.043 155.427 C 164.109 154.792,164.109 153.753,164.043 153.118 C 163.976 152.483,163.922 153.002,163.922 154.273 M272.302 154.888 C 272.302 155.820,272.359 156.201,272.430 155.735 C 272.501 155.269,272.501 154.507,272.430 154.042 C 272.359 153.576,272.302 153.957,272.302 154.888 M105.075 156.736 C 105.075 157.329,105.139 157.571,105.216 157.275 C 105.294 156.978,105.294 156.493,105.216 156.197 C 105.139 155.901,105.075 156.143,105.075 156.736 M91.228 164.655 C 91.696 164.726,92.389 164.724,92.768 164.651 C 93.147 164.578,92.764 164.520,91.917 164.522 C 91.070 164.525,90.760 164.584,91.228 164.655 M281.524 164.963 C 281.990 165.033,282.752 165.033,283.218 164.963 C 283.684 164.892,283.303 164.834,282.371 164.834 C 281.440 164.834,281.059 164.892,281.524 164.963 M82.596 173.672 C 82.596 174.265,82.660 174.507,82.737 174.211 C 82.815 173.915,82.815 173.430,82.737 173.133 C 82.660 172.837,82.596 173.079,82.596 173.672 M291.976 182.503 C 292.289 182.585,292.545 183.031,292.619 183.622 C 292.737 184.565,292.744 184.558,292.791 183.449 C 292.835 182.433,292.758 182.298,292.148 182.330 C 291.656 182.355,291.606 182.405,291.976 182.503 M176.520 182.823 C 176.986 182.893,177.748 182.893,178.214 182.823 C 178.680 182.752,178.299 182.694,177.367 182.694 C 176.436 182.694,176.055 182.752,176.520 182.823 M133.112 183.137 C 133.921 183.200,135.168 183.200,135.883 183.135 C 136.598 183.070,135.935 183.018,134.411 183.019 C 132.887 183.020,132.302 183.073,133.112 183.137 M281.992 184.057 C 282.545 184.125,283.377 184.124,283.839 184.054 C 284.302 183.983,283.849 183.927,282.833 183.929 C 281.817 183.931,281.438 183.988,281.992 184.057 M278.984 209.796 C 278.984 209.849,279.434 210.299,279.985 210.797 L 280.985 211.701 280.081 210.701 C 279.238 209.768,278.984 209.558,278.984 209.796 " stroke="none" fill="#828c84" fill-rule="evenodd"></path><path id="path4" d="M120.400 106.948 C 120.400 107.001,120.851 107.451,121.401 107.949 L 122.402 108.853 121.497 107.852 C 120.654 106.919,120.400 106.710,120.400 106.948 M104.842 134.873 C 104.842 146.813,104.880 151.697,104.927 145.727 C 104.973 139.758,104.973 129.988,104.927 124.018 C 104.880 118.048,104.842 122.933,104.842 134.873 M167.661 144.111 C 167.661 160.793,167.699 167.617,167.744 159.276 C 167.790 150.935,167.790 137.286,167.744 128.945 C 167.699 120.604,167.661 127.429,167.661 144.111 M281.836 125.548 C 282.304 125.619,282.997 125.617,283.376 125.544 C 283.755 125.471,283.372 125.413,282.525 125.415 C 281.678 125.418,281.368 125.477,281.836 125.548 M302.694 133.430 C 302.694 133.483,303.145 133.933,303.695 134.430 L 304.696 135.335 303.792 134.334 C 302.948 133.401,302.694 133.192,302.694 133.430 M127.466 147.113 L 126.405 148.268 127.560 147.207 C 128.195 146.623,128.714 146.103,128.714 146.052 C 128.714 145.817,128.454 146.038,127.466 147.113 M163.890 151.193 C 163.890 151.786,163.953 152.028,164.031 151.732 C 164.108 151.436,164.108 150.951,164.031 150.654 C 163.953 150.358,163.890 150.600,163.890 151.193 M312.004 153.349 C 312.004 153.941,312.067 154.184,312.145 153.888 C 312.222 153.591,312.222 153.106,312.145 152.810 C 312.067 152.513,312.004 152.756,312.004 153.349 M124.487 153.965 C 124.487 154.727,124.547 155.038,124.621 154.657 C 124.694 154.276,124.694 153.653,124.621 153.272 C 124.547 152.891,124.487 153.202,124.487 153.965 M252.894 155.812 C 252.894 156.574,252.954 156.886,253.027 156.505 C 253.101 156.124,253.101 155.500,253.027 155.119 C 252.954 154.738,252.894 155.050,252.894 155.812 M275.443 161.971 C 276.104 162.648,276.715 163.202,276.799 163.202 C 276.884 163.202,276.412 162.648,275.751 161.971 C 275.089 161.293,274.479 160.739,274.394 160.739 C 274.309 160.739,274.781 161.293,275.443 161.971 M279.677 184.046 C 279.973 184.123,280.458 184.123,280.754 184.046 C 281.051 183.969,280.808 183.905,280.216 183.905 C 279.623 183.905,279.380 183.969,279.677 184.046 M276.916 203.695 C 276.919 204.542,276.979 204.852,277.049 204.384 C 277.120 203.916,277.118 203.223,277.045 202.844 C 276.972 202.465,276.914 202.848,276.916 203.695 " stroke="none" fill="#8c948c" fill-rule="evenodd"></path></g></svg>